Coordinates
version=1
nRows=17
nColumns=33
inDegrees=yes

Units are S.I. units (second, meters, Newtons, ...)
Angles are in degrees.

endheader
time	ground_thorax_rot_x	ground_thorax_rot_y	ground_thorax_rot_z	ground_thorax_tx	ground_thorax_ty	ground_thorax_tz	clav_prot_r	clav_elev_r	scapula_abduction_r	scapula_elevation_r	scapula_upward_rot_r	scapula_winging_r	shoulder_elv_r	plane_of_elev_r	axial_rot_r	elbow_flexion_r	pro_sup_r	wrist_flex_r	wrist_dev_r	clav_prot_l	clav_elev_l	scapula_abduction_l	scapula_elevation_l	scapula_upward_rot_l	scapula_winging_l	shoulder_elv_l	plane_of_elev_l	axial_rot_l	elbow_flexion_l	pro_sup_l	wrist_flex_l	wrist_dev_l	
1.3500	-40.182200	-2.265095	1.217649	-54.909643	790.615435	5.250089	5.168681	-45.000000	45.000000	-45.000000	-8.341326	-2246.433406	-1370.679845	33.123139	23.859506	1087.309316	31.716456	17.422562	13.458803	17.188977	42.827977	-44.999998	-45.000000	-28.751731	792.860833	-2430.134250	20.088907	-180.000000	354.955466	-221.661638	6.662066	-12.523950	
1.3600	-40.244609	-2.171482	1.117147	-56.196589	791.402777	5.529083	5.060891	-45.000000	45.000000	-45.000000	-8.064606	-2246.688563	-1370.479859	33.138130	24.379950	1087.524515	31.753441	17.478133	13.261914	16.985612	42.885301	-44.999997	-45.000000	-28.555701	793.138116	-2430.076524	20.110938	-180.000000	354.796262	-222.167763	6.625008	-12.683473	
1.3700	-40.316296	-2.126875	1.067328	-57.598708	792.189951	5.801648	4.971535	-45.000000	45.000000	-45.000000	-7.851447	-2246.944735	-1370.289316	33.145508	24.901429	1087.721573	31.768177	17.509723	13.099817	16.798557	42.805260	-44.999995	-45.000000	-28.390502	793.480878	-2430.069582	20.180293	-180.000000	354.671968	-222.823524	6.596995	-12.822946	
1.3800	-40.389226	-2.127397	1.091964	-59.253072	792.973545	6.067990	4.903193	-45.000000	45.000000	-45.000000	-7.737567	-2247.228887	-1370.080353	33.140774	25.397124	1087.916155	31.703192	17.578697	12.914254	16.687406	42.803590	-44.999991	-45.000000	-28.441747	793.749134	-2429.927349	20.194845	-180.000000	354.504073	-223.738824	6.564525	-12.952198	
1.3900	-40.463018	-2.165474	1.173402	-61.178130	793.757543	6.324141	4.852907	-45.000000	45.000000	-45.000000	-7.708448	-2247.543321	-1369.855665	33.140018	25.882558	1088.101580	31.571347	17.668662	12.727886	16.618552	42.781243	-44.999983	-45.000000	-28.642283	794.016459	-2429.730229	20.208682	-180.000000	354.311316	-224.928473	6.538213	-13.064690	
1.4000	-40.538607	-2.225459	1.292451	-63.411991	794.546310	6.567776	4.819847	-45.000000	44.999999	-45.000000	-7.762531	-2247.891709	-1369.617300	33.156755	26.370135	1088.279622	31.374935	17.779810	12.543634	16.592019	42.727855	-44.999970	-45.000000	-28.986022	794.302776	-2429.480072	20.240748	-180.000000	354.092900	-226.410624	6.519063	-13.161254	
1.4100	-40.610886	-2.295470	1.434018	-65.961770	795.346861	6.797076	4.798822	-45.000000	44.999999	-45.000000	-7.877667	-2248.277416	-1369.362200	33.191886	26.880593	1088.459115	31.125361	17.910183	12.360046	16.583558	42.647897	-44.999947	-45.000000	-29.438904	794.617788	-2429.205466	20.289527	-180.000000	353.834817	-228.168132	6.512278	-13.244591	
1.4200	-40.679590	-2.376381	1.595413	-68.821033	796.167772	7.010992	4.797136	-45.000000	44.999998	-45.000000	-8.063797	-2248.696679	-1369.094929	33.246817	27.431238	1088.645161	30.829795	18.049069	12.181077	16.602324	42.512502	-44.999905	-45.000000	-30.000525	794.979731	-2428.921793	20.372485	-180.000000	353.538724	-230.209515	6.517618	-13.311404	
1.4300	-40.739895	-2.476365	1.788671	-71.983589	797.017910	7.209245	4.819871	-45.000000	44.999997	-45.000000	-8.323022	-2249.143846	-1368.808294	33.301918	28.042427	1088.848472	30.481883	18.195304	11.994558	16.631909	42.367594	-44.999830	-45.000000	-30.657205	795.343848	-2428.631848	20.434494	-180.000000	353.189132	-232.560304	6.536273	-13.352968	
1.4400	-40.784942	-2.662276	2.089917	-75.443013	797.906364	7.390911	4.907787	-45.000000	44.999995	-45.000000	-8.758196	-2249.617601	-1368.497279	33.352045	28.731076	1089.067907	30.050457	18.331918	11.805472	16.719351	42.159073	-44.999695	-45.000000	-31.585514	795.697712	-2428.283582	20.493674	-180.000000	352.782644	-235.371450	6.557841	-13.355110	
1.4500	-40.810926	-2.933490	2.504242	-79.191629	798.841658	7.554218	5.056726	-45.000000	44.999991	-45.000000	-9.349347	-2250.112995	-1368.163078	33.376439	29.496387	1089.297299	29.499209	18.452899	11.612404	16.842848	41.902805	-44.999454	-45.000000	-32.770021	796.011643	-2427.885993	20.518050	-180.000000	352.301287	-238.813193	6.577891	-13.302057	
1.4600	-40.818669	-3.285373	3.023226	-83.221253	799.831274	7.696661	5.263695	-45.000000	44.999983	-45.000000	-10.101261	-2250.629428	-1367.810847	33.388983	30.340596	1089.523011	28.812089	18.553859	11.411349	17.005591	41.567980	-44.999021	-45.000000	-34.227790	796.309190	-2427.440977	20.540154	-180.000000	351.744582	-242.961047	6.589222	-13.194841	
1.4700	-40.815950	-3.632490	3.547872	-87.522063	800.880720	7.815254	5.494049	-45.000000	44.999970	-45.000000	-10.895001	-2251.149802	-1367.450937	33.386203	31.244409	1089.730937	27.937474	18.634590	11.208996	17.146521	41.205464	-44.998247	-45.000000	-35.791603	796.588945	-2426.980527	20.541611	-180.000000	351.085149	-248.126276	6.584605	-12.983265	
1.4800	-40.806568	-3.959182	4.058908	-92.083235	801.992810	7.906841	5.720673	-45.000000	44.999946	-45.000000	-11.706219	-2251.682146	-1367.096272	33.384726	32.228295	1089.921414	26.964062	18.701137	11.001036	17.276074	40.815126	-44.996859	-45.000000	-37.435964	796.884000	-2426.512250	20.557017	-180.000000	350.368905	-253.846459	6.564654	-12.728624	
1.4900	-40.800187	-4.207128	4.493286	-96.891341	803.167079	7.968426	5.913938	-45.000000	44.999903	-45.000000	-12.454394	-2252.218617	-1366.761843	33.376661	33.271166	1090.098725	25.974856	18.759871	10.772282	17.358440	40.467924	-44.994376	-45.000000	-38.959913	797.201988	-2426.102845	20.558093	-180.000000	349.634870	-259.681197	6.537929	-12.460595	
1.5000	-40.800159	-4.397245	4.874011	-101.930857	804.399575	7.997417	6.076556	-45.000000	44.999826	-45.000000	-13.185349	-2252.764945	-1366.448828	33.374345	34.378622	1090.274736	25.117696	18.816259	10.498607	17.409281	40.170875	-44.989916	-45.000000	-40.317592	797.566180	-2425.795629	20.549227	-180.000000	348.961204	-264.827588	6.518480	-12.260730	
1.5100	-40.807365	-4.525180	5.199155	-107.182988	805.683018	7.991884	6.232109	-45.000000	44.999689	-45.000000	-13.915163	-2253.310537	-1366.153272	33.371169	35.503202	1090.452305	24.399951	18.865314	10.183874	17.425698	39.941240	-44.981964	-45.000000	-41.474542	797.959778	-2425.595953	20.510800	-180.000000	348.351158	-269.293538	6.505402	-12.096887	
